<svg width="132" height="31" viewBox="0 0 132 31" fill="none" xmlns="http://www.w3.org/2000/svg">
<g clip-path="url(#clip0_919_8198)">
<path fill-rule="evenodd" clip-rule="evenodd" d="M11.25 21.5C10.2554 21.5 9.30161 21.1049 8.59835 20.4016C7.89509 19.6984 7.5 18.7446 7.5 17.75V0.5H0V17.75C0 23.963 5.037 29 11.25 29H19.5V21.5H11.25ZM33.75 8C32.8636 8 31.9858 8.17459 31.1669 8.51381C30.3479 8.85303 29.6038 9.35023 28.977 9.97703C28.3502 10.6038 27.853 11.3479 27.5138 12.1669C27.1746 12.9858 27 13.8636 27 14.75C27 15.6364 27.1746 16.5142 27.5138 17.3331C27.853 18.1521 28.3502 18.8962 28.977 19.523C29.6038 20.1498 30.3479 20.647 31.1669 20.9862C31.9858 21.3254 32.8636 21.5 33.75 21.5C35.5402 21.5 37.2571 20.7888 38.523 19.523C39.7888 18.2571 40.5 16.5402 40.5 14.75C40.5 12.9598 39.7888 11.2429 38.523 9.97703C37.2571 8.71116 35.5402 8 33.75 8ZM19.5 14.75C19.5 6.88025 25.8802 0.5 33.75 0.5C41.6198 0.5 48 6.88025 48 14.75C48 22.6198 41.6198 29 33.75 29C25.8802 29 19.5 22.6198 19.5 14.75ZM114.75 8C112.96 8 111.243 8.71116 109.977 9.97703C108.711 11.2429 108 12.9598 108 14.75C108 16.5402 108.711 18.2571 109.977 19.523C111.243 20.7888 112.96 21.5 114.75 21.5C116.54 21.5 118.257 20.7888 119.523 19.523C120.789 18.2571 121.5 16.5402 121.5 14.75C121.5 12.9598 120.789 11.2429 119.523 9.97703C118.257 8.71116 116.54 8 114.75 8ZM100.5 14.75C100.5 6.88025 106.88 0.5 114.75 0.5C122.62 0.5 129 6.88025 129 14.75C129 22.6198 122.62 29 114.75 29C106.88 29 100.5 22.6198 100.5 14.75ZM63.75 0.5C55.8802 0.5 49.5 6.88025 49.5 14.75C49.5 22.6198 55.8802 29 63.75 29H84.75C86.2268 29 87.651 28.775 88.9905 28.358L93 30.5L97.326 22.397C98.4249 20.3343 98.9998 18.033 99 15.6957V14.75C99 6.88025 92.6198 0.5 84.75 0.5H63.75ZM91.5 14.75C91.5 12.9598 90.7888 11.2429 89.523 9.97703C88.2571 8.71116 86.5402 8 84.75 8H63.75C62.8636 8 61.9858 8.17459 61.1669 8.51381C60.3479 8.85303 59.6038 9.35023 58.977 9.97703C58.3502 10.6038 57.853 11.3479 57.5138 12.1669C57.1746 12.9858 57 13.8636 57 14.75C57 15.6364 57.1746 16.5142 57.5138 17.3331C57.853 18.1521 58.3502 18.8962 58.977 19.523C59.6038 20.1498 60.3479 20.647 61.1669 20.9862C61.9858 21.3254 62.8636 21.5 63.75 21.5H84.75C86.5312 21.5001 88.2401 20.7961 89.5045 19.5416C90.7689 18.287 91.4861 16.5836 91.5 14.8025V14.75Z" fill="white"/>
<path d="M132 2.375C132 2.87228 131.802 3.34919 131.451 3.70083C131.099 4.05246 130.622 4.25 130.125 4.25C129.628 4.25 129.151 4.05246 128.799 3.70083C128.448 3.34919 128.25 2.87228 128.25 2.375C128.25 1.87772 128.448 1.40081 128.799 1.04917C129.151 0.697544 129.628 0.5 130.125 0.5C130.622 0.5 131.099 0.697544 131.451 1.04917C131.802 1.40081 132 1.87772 132 2.375Z" fill="white"/>
</g>
<defs>
<clipPath id="clip0_919_8198">
<rect width="132" height="30" fill="white" transform="translate(0 0.5)"/>
</clipPath>
</defs>
</svg>
