<svg width="829" height="454" viewBox="0 0 829 454" fill="none" xmlns="http://www.w3.org/2000/svg">
<path d="M207.378 365.391L170.871 278.709L239.954 205.133L243.699 208.69L177.049 279.833L212.246 363.331L207.378 365.391Z" fill="white" stroke="#D6AEF5" stroke-width="4" stroke-miterlimit="10" stroke-linejoin="round"/>
<path d="M173.68 288.07C178.022 288.07 181.543 284.55 181.543 280.207C181.543 275.864 178.022 272.344 173.68 272.344C169.337 272.344 165.816 275.864 165.816 280.207C165.816 284.55 169.337 288.07 173.68 288.07Z" fill="white" stroke="#D6AEF5" stroke-width="4" stroke-miterlimit="10" stroke-linejoin="round"/>
<path d="M252.31 373.814H183.602C190.529 362.019 203.259 353.969 217.862 353.969C232.465 353.969 245.383 361.832 252.31 373.814Z" fill="#EBD6FA" stroke="#D6AEF5" stroke-width="4" stroke-miterlimit="10" stroke-linejoin="round"/>
<path d="M282.266 233.027L292.937 243.886" stroke="#D6AEF5" stroke-width="4" stroke-miterlimit="10" stroke-linecap="round" stroke-linejoin="round"/>
<path d="M271.969 239.957L274.028 249.505" stroke="#D6AEF5" stroke-width="4" stroke-miterlimit="10" stroke-linecap="round" stroke-linejoin="round"/>
<path d="M288.633 223.293L300.427 225.914" stroke="#D6AEF5" stroke-width="4" stroke-miterlimit="10" stroke-linecap="round" stroke-linejoin="round"/>
<path d="M245.009 242.202L292.749 194.462C279.082 194.462 269.16 194.275 265.79 194.275C262.42 194.275 254.182 190.718 245.945 182.667L245.571 182.293C242.013 178.736 236.397 178.736 232.84 182.293C229.283 185.85 229.283 191.466 232.84 195.024L233.214 195.398C241.452 203.636 244.822 211.873 244.822 215.243C244.822 218.426 244.822 228.536 245.009 242.202Z" fill="white" stroke="#D6AEF5" stroke-width="4" stroke-miterlimit="10" stroke-linejoin="round"/>
<path d="M245.381 243.515C248.19 246.323 261.295 237.711 274.775 224.232C288.254 210.752 296.866 197.647 294.058 194.838C291.811 192.592 282.638 197.834 272.154 207.008C269.72 209.254 267.099 211.501 264.665 214.122C262.044 216.743 259.797 219.177 257.551 221.611C248.377 232.282 243.135 241.268 245.381 243.515Z" fill="#EBD6FA" stroke="#D6AEF5" stroke-width="4" stroke-miterlimit="10" stroke-linejoin="round"/>
<path d="M257.925 221.985C262.044 226.104 268.409 226.104 272.528 221.985C276.647 217.866 276.647 211.501 272.528 207.382C272.341 207.195 272.341 207.195 272.154 207.008C269.72 209.254 267.099 211.501 264.665 214.122C262.044 216.743 259.797 219.177 257.551 221.611C257.738 221.798 257.925 221.985 257.925 221.985Z" fill="white" stroke="#D6AEF5" stroke-width="4" stroke-miterlimit="10" stroke-linejoin="round"/>
<path d="M247.441 235.461V273.84" stroke="#D6AEF5" stroke-width="4" stroke-miterlimit="10" stroke-linejoin="round"/>
<path d="M250.084 276.843C251.546 275.381 251.546 273.01 250.084 271.548C248.621 270.085 246.25 270.085 244.788 271.548C243.326 273.01 243.326 275.381 244.788 276.843C246.25 278.305 248.621 278.305 250.084 276.843Z" fill="white" stroke="#D6AEF5" stroke-width="4" stroke-miterlimit="10" stroke-linejoin="round"/>
<path d="M215.244 244.824C212.436 245.573 193.152 250.254 193.152 250.254C193.152 250.254 196.897 270.286 202.513 272.345C213.559 270.847 221.235 268.788 221.235 268.788C217.678 261.861 215.244 244.824 215.244 244.824Z" fill="#EBD6FA" stroke="#D6AEF5" stroke-width="4" stroke-miterlimit="10"/>
<g opacity="0.6">
<path d="M315.59 2H253.434V95.047H315.59V2Z" fill="#EBD6FA" stroke="#D6AEF5" stroke-width="4" stroke-miterlimit="10" stroke-linejoin="round"/>
<path d="M284.697 68.6482C295.45 68.6482 304.168 59.931 304.168 49.1776C304.168 38.4243 295.45 29.707 284.697 29.707C273.944 29.707 265.227 38.4243 265.227 49.1776C265.227 59.931 273.944 68.6482 284.697 68.6482Z" fill="white" stroke="#D6AEF5" stroke-width="4" stroke-miterlimit="10" stroke-linecap="round" stroke-linejoin="round"/>
<path d="M371.005 95.0469H144.098V107.403H371.005V95.0469Z" fill="white" stroke="#D6AEF5" stroke-width="4" stroke-miterlimit="10" stroke-linecap="round" stroke-linejoin="round"/>
<path d="M349.477 104.594V116.576" stroke="#D6AEF5" stroke-width="4" stroke-miterlimit="10" stroke-linecap="round" stroke-linejoin="round"/>
<path d="M168.492 104.594V116.576" stroke="#D6AEF5" stroke-width="4" stroke-miterlimit="10" stroke-linecap="round" stroke-linejoin="round"/>
<path d="M209.438 43.75H196.52V95.0476H209.438V43.75Z" fill="white" stroke="#D6AEF5" stroke-width="4" stroke-miterlimit="10" stroke-linecap="round" stroke-linejoin="round"/>
<path d="M217.331 46.5885L209.535 52.1016L239.154 93.986L246.95 88.4729L217.331 46.5885Z" fill="white" stroke="#D6AEF5" stroke-width="4" stroke-miterlimit="10" stroke-linecap="round" stroke-linejoin="round"/>
<path d="M196.707 28.0234H183.789V95.0472H196.707V28.0234Z" fill="white" stroke="#D6AEF5" stroke-width="4" stroke-miterlimit="10" stroke-linecap="round" stroke-linejoin="round"/>
<path d="M315.028 82.6902C315.028 82.6902 315.028 82.6902 310.347 70.521C306.041 59.1008 300.237 54.0459 293.498 52.3609C292.936 52.1737 292.561 52.7354 292.936 53.297C296.306 57.7902 299.676 63.2195 303.046 69.5849C303.982 71.4571 304.918 73.1421 306.041 75.0142L315.028 82.6902Z" fill="white" stroke="#D6AEF5" stroke-width="4" stroke-miterlimit="10" stroke-linecap="round" stroke-linejoin="round"/>
<path d="M317.089 78.3842C317.089 78.3842 315.404 76.1376 321.582 64.5301C327.199 54.046 335.062 51.6122 341.801 50.8633C342.55 50.8633 342.925 51.6121 342.363 52.1738C338.619 56.1054 334.5 60.973 330.568 66.7768C329.445 68.4617 328.135 70.1467 327.011 71.8316L317.089 78.3842Z" fill="white" stroke="#D6AEF5" stroke-width="4" stroke-miterlimit="10" stroke-linecap="round" stroke-linejoin="round"/>
<path d="M325.139 74.8251C325.139 74.8251 325.139 74.8251 323.079 61.9071C321.207 49.9252 316.527 43.5598 310.348 40.5643C309.787 40.3771 309.412 40.7515 309.599 41.3132C311.846 46.3681 314.093 52.359 316.152 59.2861C316.714 61.3455 317.275 63.2176 317.837 65.0898L325.139 74.8251Z" fill="white" stroke="#D6AEF5" stroke-width="4" stroke-miterlimit="10" stroke-linecap="round" stroke-linejoin="round"/>
<path d="M314.278 84.7483C314.278 84.7483 314.278 84.7483 313.529 66.401C312.78 48.9898 307.164 39.4417 298.739 34.3869C298.365 34.0124 297.616 34.5741 297.803 35.1357C300.237 42.6244 302.483 51.6109 304.168 61.9078C304.917 66.2138 305.666 70.5198 306.602 74.8258L314.278 84.7483Z" fill="white" stroke="#D6AEF5" stroke-width="4" stroke-miterlimit="10" stroke-linecap="round" stroke-linejoin="round"/>
<path d="M312.594 83.6231C312.594 83.6231 312.594 83.6231 314.466 65.463C316.338 48.239 322.703 39.0654 331.315 34.5721C331.877 34.3849 332.252 34.7594 332.064 35.321C329.069 42.8097 326.261 51.4217 324.014 61.5314C323.078 65.8374 321.955 69.9562 320.644 74.2622L312.594 83.6231Z" fill="white" stroke="#D6AEF5" stroke-width="4" stroke-miterlimit="10" stroke-linecap="round" stroke-linejoin="round"/>
<path d="M324.389 93.5469H307.727C302.11 93.5469 297.43 89.0537 297.43 83.25V67.7109H334.499V83.25C334.499 88.8665 330.005 93.5469 324.389 93.5469Z" fill="white" stroke="#D6AEF5" stroke-width="4" stroke-miterlimit="10" stroke-linecap="round" stroke-linejoin="round"/>
</g>
<g opacity="0.5">
<path d="M670.177 134.738H575.258V193.15H670.177V134.738Z" fill="white" stroke="#D6AEF5" stroke-width="4" stroke-miterlimit="10" stroke-linecap="round" stroke-linejoin="round"/>
<path d="M670.363 213.367H613.449V286.944H670.363V213.367Z" fill="white" stroke="#D6AEF5" stroke-width="4" stroke-miterlimit="10" stroke-linecap="round" stroke-linejoin="round"/>
<path d="M755.736 110.398H687.027V213.181H755.736V110.398Z" fill="white" stroke="#D6AEF5" stroke-width="4" stroke-miterlimit="10" stroke-linecap="round" stroke-linejoin="round"/>
<path d="M826.315 157.953H773.52V236.772H826.315V157.953Z" fill="white" stroke="#D6AEF5" stroke-width="4" stroke-miterlimit="10" stroke-linecap="round" stroke-linejoin="round"/>
<path d="M755.736 230.031H687.027V281.329H755.736V230.031Z" fill="white" stroke="#D6AEF5" stroke-width="4" stroke-miterlimit="10" stroke-linecap="round" stroke-linejoin="round"/>
</g>
<path d="M634.046 329.632V245.384C634.046 242.95 632.174 241.078 629.927 241.078C627.681 241.078 625.809 242.95 625.809 245.384V329.632" fill="white"/>
<path d="M634.046 329.632V245.384C634.046 242.95 632.174 241.078 629.927 241.078C627.681 241.078 625.809 242.95 625.809 245.384V329.632" stroke="#D6AEF5" stroke-width="4" stroke-miterlimit="10" stroke-linejoin="round"/>
<path d="M616.636 273.653C622.253 279.083 624.499 286.197 623.751 293.311C616.449 294.06 608.96 291.813 603.344 286.571C597.727 281.142 595.481 274.028 596.23 266.914C603.531 265.977 611.02 268.224 616.636 273.653Z" fill="#EBD6FA" stroke="#D6AEF5" stroke-width="4" stroke-miterlimit="10" stroke-linejoin="round"/>
<path d="M610.645 281.145L621.503 293.314" stroke="#D6AEF5" stroke-width="4" stroke-miterlimit="10" stroke-linejoin="round"/>
<path d="M657.448 266.351C651.831 271.967 644.155 274.401 636.667 273.652C635.918 266.164 638.164 258.675 643.968 252.871C649.585 247.255 657.261 244.821 664.749 245.57C665.498 253.058 663.064 260.734 657.448 266.351Z" fill="#EBD6FA" stroke="#D6AEF5" stroke-width="4" stroke-miterlimit="10" stroke-linejoin="round"/>
<path d="M650.522 259.801L636.48 273.842" stroke="#D6AEF5" stroke-width="4" stroke-miterlimit="10" stroke-linejoin="round"/>
<path d="M654.268 331.879V337.496C654.268 338.806 653.332 339.743 652.022 339.743C650.711 339.743 649.775 340.679 649.775 341.989L644.907 372.318H616.263L611.396 341.989C611.396 340.679 610.459 339.743 609.149 339.743C607.838 339.743 606.902 338.806 606.902 337.496V331.879C606.902 330.569 607.838 329.633 609.149 329.633H651.647C653.145 329.633 654.268 330.569 654.268 331.879Z" fill="#EBD6FA" stroke="#D6AEF5" stroke-width="4" stroke-miterlimit="10" stroke-linejoin="round"/>
<path d="M657.448 307.913C651.831 313.53 644.155 315.964 636.667 315.215C635.918 307.726 638.164 300.237 643.968 294.434C649.585 288.817 657.261 286.383 664.749 287.132C665.498 294.621 663.064 302.297 657.448 307.913Z" fill="#EBD6FA" stroke="#D6AEF5" stroke-width="4" stroke-miterlimit="10" stroke-linejoin="round"/>
<path d="M650.522 301.176L636.48 315.217" stroke="#D6AEF5" stroke-width="4" stroke-miterlimit="10" stroke-linejoin="round"/>
<path d="M178.359 451.697H158.139C157.765 451.697 157.391 451.323 157.391 450.948V396.843C157.391 396.468 157.765 396.094 158.139 396.094H178.359C178.733 396.094 179.108 396.468 179.108 396.843V450.948C179.108 451.323 178.733 451.697 178.359 451.697Z" fill="#EBD6FA" stroke="#D6AEF5" stroke-width="4" stroke-miterlimit="10"/>
<path d="M721.664 451.697H701.444C701.07 451.697 700.695 451.323 700.695 450.948V396.843C700.695 396.468 701.07 396.094 701.444 396.094H721.664C722.038 396.094 722.412 396.468 722.412 396.843V450.948C722.412 451.323 722.038 451.697 721.664 451.697Z" fill="#EBD6FA" stroke="#D6AEF5" stroke-width="4" stroke-miterlimit="10"/>
<path d="M496.628 376.996C479.591 377.558 459.372 376.996 444.582 376.809C430.353 377.37 409.572 377.558 392.535 376.996C409.385 367.448 415.376 349.662 416.125 338.055H472.664C474.162 349.475 479.966 367.448 496.628 376.996Z" fill="#EBD6FA" stroke="#D6AEF5" stroke-width="4" stroke-miterlimit="10"/>
<path d="M551.296 189.592V335.996C551.296 339.74 548.301 342.548 545.118 342.548H344.983C341.426 342.548 338.805 339.553 338.805 335.996V189.592C338.805 186.035 341.8 183.039 344.983 183.039H544.744C548.675 183.226 551.296 186.035 551.296 189.592Z" fill="white" stroke="#D6AEF5" stroke-width="4" stroke-miterlimit="10"/>
<path d="M551.296 189.592V315.776H338.805V189.592C338.805 186.035 341.8 183.039 344.983 183.039H544.744C548.675 183.226 551.296 186.035 551.296 189.592Z" fill="white" stroke="#D6AEF5" stroke-width="4" stroke-miterlimit="10"/>
<path d="M444.957 333.75C447.952 333.75 450.199 331.69 450.199 328.508C450.199 325.512 448.14 323.266 444.957 323.266C441.961 323.266 439.715 325.325 439.715 328.508C439.715 331.503 441.774 333.75 444.957 333.75Z" fill="#D6AEF5"/>
<path d="M374.189 328.133C371.381 328.882 352.098 333.562 352.098 333.562C352.098 333.562 355.842 353.594 361.459 355.654C372.504 354.156 380.18 352.097 380.18 352.097C376.623 345.17 374.189 328.133 374.189 328.133Z" fill="#EBD6FA" stroke="#D6AEF5" stroke-width="4" stroke-miterlimit="10"/>
<path d="M407.513 329.254L432.6 337.117C432.6 337.117 425.486 355.464 420.057 358.273C410.321 356.213 400.586 353.218 400.586 353.218C406.39 343.108 407.513 329.254 407.513 329.254Z" fill="#EBD6FA" stroke="#D6AEF5" stroke-width="4" stroke-miterlimit="10"/>
<path d="M535.755 358.274C526.395 353.968 516.098 345.731 516.098 345.731L530.888 325.324L551.294 340.114C551.294 340.302 542.308 352.471 535.755 358.274Z" fill="#EBD6FA" stroke="#D6AEF5" stroke-width="4" stroke-miterlimit="10"/>
<path d="M725.409 404.894H154.77C153.46 404.894 152.523 403.77 152.523 402.647V385.797C152.523 384.487 153.647 383.551 154.77 383.551H725.409C726.719 383.551 727.655 384.674 727.655 385.797V402.647C727.655 403.77 726.719 404.894 725.409 404.894Z" fill="#EBD6FA" stroke="#D6AEF5" stroke-width="4" stroke-miterlimit="10"/>
<path d="M816.584 56.4805L769.218 88.1202L763.789 101.038L777.082 92.0518" fill="#D6AEF5"/>
<path d="M816.584 56.4805L769.218 88.1202L763.789 101.038L777.082 92.0518" stroke="#C285F0" stroke-width="4" stroke-miterlimit="10" stroke-linejoin="round"/>
<path d="M745.254 77.0744L816.584 56.4805L789.999 98.6044L769.218 88.1202L763.788 101.038L760.606 84.7503L745.254 77.0744Z" fill="#D6AEF5" stroke="#C285F0" stroke-width="4" stroke-miterlimit="10" stroke-linejoin="round"/>
<path d="M816.585 56.4805L769.219 88.1202" stroke="#C285F0" stroke-width="4" stroke-miterlimit="10" stroke-linejoin="round"/>
<path d="M816.583 56.4805L760.605 84.7503" stroke="#C285F0" stroke-width="4" stroke-miterlimit="10" stroke-linejoin="round"/>
<g opacity="0.6">
<path d="M212.618 178.547H60.4102V190.342H212.618V178.547Z" fill="white" stroke="#D6AEF5" stroke-width="4" stroke-miterlimit="10" stroke-linecap="round" stroke-linejoin="round"/>
<path d="M137.546 166.566H69.3984V178.361H137.546V166.566Z" fill="white" stroke="#D6AEF5" stroke-width="4" stroke-miterlimit="10" stroke-linecap="round" stroke-linejoin="round"/>
<path d="M129.87 156.266H77.0742V166.563H129.87V156.266Z" fill="white" stroke="#D6AEF5" stroke-width="4" stroke-miterlimit="10" stroke-linecap="round" stroke-linejoin="round"/>
<path d="M192.211 187.719V198.952" stroke="#D6AEF5" stroke-width="4" stroke-miterlimit="10" stroke-linecap="round" stroke-linejoin="round"/>
<path d="M81.7539 187.719V198.952" stroke="#D6AEF5" stroke-width="4" stroke-miterlimit="10" stroke-linecap="round" stroke-linejoin="round"/>
<path d="M196.145 133.241V137.921C196.145 139.232 195.958 140.355 195.583 141.478C194.46 145.597 191.652 148.78 187.907 150.652C187.158 151.026 186.597 151.401 186.41 151.963C186.035 152.524 185.661 153.273 185.661 154.022C185.661 155.52 186.597 156.83 187.907 157.579C192.4 159.638 195.396 163.57 196.145 168.438C196.332 168.999 196.332 169.561 196.332 170.31V174.99C196.332 175.552 196.145 176.114 196.145 176.675H168.062C167.875 176.114 167.875 175.552 167.875 174.99V170.31C167.875 169.748 168.062 169.374 168.062 168.812C168.062 168.625 168.249 168.25 168.249 168.063C168.998 163.196 171.994 159.264 176.3 157.392C177.61 156.83 178.546 155.332 178.546 153.835C178.546 153.086 178.359 152.337 177.985 151.775C177.985 151.588 177.798 151.588 177.798 151.588C177.423 151.026 176.861 150.652 176.3 150.278C173.304 148.967 170.87 146.72 169.373 143.725C168.998 142.976 168.624 142.227 168.437 141.291C168.249 141.104 168.249 140.729 168.249 140.542C168.062 139.606 167.875 138.483 167.875 137.547V132.866C167.875 132.679 167.875 132.492 167.875 132.305H196.332C196.145 132.866 196.145 133.054 196.145 133.241Z" fill="white" stroke="#D6AEF5" stroke-width="4" stroke-miterlimit="10" stroke-linecap="round" stroke-linejoin="round"/>
<path opacity="0.5" d="M185.473 170.871C185.473 170.871 174.24 172.369 173.866 172.182C173.492 171.995 170.122 171.246 167.875 170.871V169.935C167.875 169.374 167.875 168.999 168.062 168.438C168.249 168.25 168.437 168.063 168.624 167.876C171.432 165.817 177.049 163.383 182.665 167.689L185.473 170.871Z" fill="white" stroke="#D6AEF5" stroke-width="4" stroke-miterlimit="10" stroke-linecap="round" stroke-linejoin="round"/>
<path d="M196.145 133.241V137.921C196.145 139.232 195.958 140.355 195.583 141.478C194.46 145.597 191.652 148.78 187.907 150.652C187.158 151.026 186.597 151.401 186.41 151.963C186.035 152.524 185.661 153.273 185.661 154.022C185.661 155.52 186.597 156.83 187.907 157.579C192.4 159.638 195.396 163.57 196.145 168.438C196.332 168.999 196.332 169.561 196.332 170.31V174.99C196.332 175.552 196.145 176.114 196.145 176.675H168.062C167.875 176.114 167.875 175.552 167.875 174.99V170.31C167.875 169.748 168.062 169.374 168.062 168.812C168.062 168.625 168.249 168.25 168.249 168.063C168.998 163.196 171.994 159.264 176.3 157.392C177.61 156.83 178.546 155.332 178.546 153.835C178.546 153.086 178.359 152.337 177.985 151.775C177.985 151.588 177.798 151.588 177.798 151.588C177.423 151.026 176.861 150.652 176.3 150.278C173.304 148.967 170.87 146.72 169.373 143.725C168.998 142.976 168.624 142.227 168.437 141.291C168.249 141.104 168.249 140.729 168.249 140.542C168.062 139.606 167.875 138.483 167.875 137.547V132.866C167.875 132.679 167.875 132.492 167.875 132.305H196.332C196.145 132.866 196.145 133.054 196.145 133.241Z" fill="white" stroke="#D6AEF5" stroke-width="4" stroke-miterlimit="10" stroke-linecap="round" stroke-linejoin="round"/>
<path d="M185.474 145.223L173.867 145.784L169.373 143.912C168.999 143.163 168.624 142.414 168.437 141.478C168.25 141.291 168.25 140.917 168.25 140.729C172.743 138.67 176.113 137.921 182.479 140.542C183.602 141.104 184.538 141.478 185.661 142.04C195.771 147.844 185.474 145.223 185.474 145.223Z" fill="white" stroke="#D6AEF5" stroke-width="4" stroke-miterlimit="10" stroke-linecap="round" stroke-linejoin="round"/>
<path d="M195.584 141.665C194.461 145.783 191.652 148.966 187.908 150.838C187.159 151.213 186.598 151.587 186.41 152.149H186.223C184.725 152.149 183.415 153.459 183.415 154.957V169.186H180.607V154.77C180.607 153.272 179.296 151.962 177.798 151.962C177.424 151.4 176.862 151.025 176.301 150.651C173.305 149.34 170.871 147.094 169.374 144.098C168.999 143.35 168.625 142.601 168.438 141.665C174.99 144.473 179.109 142.601 182.479 140.916C183.602 140.354 184.538 139.98 185.474 139.605C189.031 138.295 192.401 139.231 195.584 141.665Z" fill="white" stroke="#D6AEF5" stroke-width="4" stroke-miterlimit="10" stroke-linecap="round" stroke-linejoin="round"/>
<path d="M196.145 170.496V175.176C196.145 175.738 195.958 176.3 195.958 176.861H170.87L167.875 174.615V170.309C167.875 169.747 167.875 169.373 168.062 168.811C168.062 168.624 168.249 168.249 168.249 168.062C168.437 168.062 168.437 168.249 168.437 168.249C168.624 168.437 168.624 168.437 168.811 168.437C175.925 171.432 180.231 168.998 183.976 167.126C184.537 166.752 185.286 166.564 185.848 166.377C189.592 165.067 193.149 166.003 196.332 168.624C195.958 169.185 196.145 169.747 196.145 170.496Z" fill="white" stroke="#D6AEF5" stroke-width="4" stroke-miterlimit="10" stroke-linecap="round" stroke-linejoin="round"/>
<path d="M197.642 134.176H166.189C165.441 134.176 164.879 133.614 164.879 133.052V130.057C164.879 129.308 165.441 128.934 166.189 128.934H197.642C198.391 128.934 198.952 129.495 198.952 130.057V133.052C198.765 133.614 198.391 134.176 197.642 134.176Z" fill="white" stroke="#D6AEF5" stroke-width="4" stroke-miterlimit="10" stroke-linecap="round" stroke-linejoin="round"/>
<path d="M197.642 179.48H166.189C165.441 179.48 164.879 178.919 164.879 178.357V175.362C164.879 174.613 165.441 174.238 166.189 174.238H197.642C198.391 174.238 198.952 174.8 198.952 175.362V178.357C198.765 178.919 198.391 179.48 197.642 179.48Z" fill="white" stroke="#D6AEF5" stroke-width="4" stroke-miterlimit="10" stroke-linecap="round" stroke-linejoin="round"/>
</g>
<path d="M450.199 125.189C473.04 125.189 491.574 106.841 491.574 84.1881C491.574 61.5348 473.04 43.1875 450.199 43.1875C427.359 43.1875 408.824 61.5348 408.824 84.1881C408.824 106.841 427.359 125.189 450.199 125.189Z" fill="#EBD6FA" stroke="#D6AEF5" stroke-width="4" stroke-miterlimit="10" stroke-linejoin="round"/>
<path d="M450.199 118.074C468.92 118.074 484.272 102.909 484.272 84.3749C484.272 65.6532 469.108 50.6758 450.199 50.6758C431.477 50.6758 416.125 65.8404 416.125 84.3749C416.125 102.909 431.29 118.074 450.199 118.074Z" fill="white" stroke="#D6AEF5" stroke-width="4" stroke-miterlimit="10"/>
<path opacity="0.3" d="M484.272 84.1874C484.272 84.7491 484.272 85.3107 484.085 86.0596C483.149 68.2739 468.358 54.0454 450.198 54.0454C432.038 54.0454 417.248 68.2739 416.125 86.0596C416.125 85.4979 415.938 84.9363 415.938 84.1874C415.938 65.6529 431.289 50.4883 450.011 50.4883C469.107 50.4883 484.272 65.6529 484.272 84.1874Z" fill="#D6AEF5" stroke="#D6AEF5" stroke-width="4" stroke-miterlimit="10"/>
<path d="M449.264 82.5028L446.643 85.1238L430.73 69.3975C429.981 68.6487 429.981 67.5254 430.73 66.7765C431.478 66.0276 432.602 66.0276 433.351 66.7765L449.264 82.5028Z" fill="#C285F0"/>
<path d="M453.383 85.3133L450.762 82.6923L462.556 70.8976C463.305 70.1487 464.429 70.1487 465.177 70.8976C465.926 71.6465 465.926 72.7698 465.177 73.5186L453.383 85.3133Z" fill="#C285F0"/>
<path d="M448.515 83.8151C449.638 82.6918 450.949 82.6918 451.885 83.8151C453.008 84.9384 453.008 86.249 451.885 86.9978C450.761 87.7467 449.451 88.1211 448.515 86.9978C447.766 86.0617 447.766 84.564 448.515 83.8151Z" fill="#C285F0"/>
<path d="M458.623 111.148C458.436 111.148 458.062 110.961 458.062 110.773L449.637 85.4991C449.45 85.3119 449.824 84.9375 450.011 84.7502C450.199 84.563 450.573 84.9375 450.76 85.1247L459.185 110.399C459.372 110.586 458.998 110.961 458.811 111.148C458.811 111.148 458.811 111.148 458.623 111.148Z" fill="#C285F0"/>
<path d="M447.39 82.5022C449.075 81.0045 451.696 81.0045 453.194 82.5022C454.879 83.9999 454.879 86.621 453.194 88.3059C451.509 89.9909 448.888 89.8037 447.39 88.3059C445.892 86.8082 445.705 84.1872 447.39 82.5022Z" fill="white" stroke="#D6AEF5" stroke-width="4" stroke-miterlimit="10"/>
<path d="M451.324 53.6719H449.264C448.89 53.6719 448.516 54.0463 448.516 54.4207V60.4117C448.516 60.7861 448.89 61.1606 449.264 61.1606H451.324C451.698 61.1606 452.073 60.7861 452.073 60.4117V54.2335C452.073 53.8591 451.886 53.6719 451.324 53.6719Z" fill="#D6AEF5"/>
<path d="M451.324 107.027H449.264C448.89 107.027 448.516 107.402 448.516 107.776V113.767C448.516 114.142 448.89 114.516 449.264 114.516H451.324C451.698 114.516 452.073 114.142 452.073 113.767V107.776C452.073 107.402 451.886 107.027 451.324 107.027Z" fill="#D6AEF5"/>
<path d="M426.236 82.1289H420.245C419.871 82.1289 419.496 82.5033 419.496 82.8778V84.9372C419.496 85.3116 419.871 85.686 420.245 85.686H426.236C426.61 85.686 426.985 85.3116 426.985 84.9372V82.8778C426.985 82.5033 426.61 82.1289 426.236 82.1289Z" fill="#D6AEF5"/>
<path d="M480.341 82.3164H474.35C473.976 82.3164 473.602 82.6908 473.602 83.0653V85.1247C473.602 85.4991 473.976 85.8735 474.35 85.8735H480.341C480.716 85.8735 481.09 85.4991 481.09 85.1247V83.0653C481.09 82.6908 480.716 82.3164 480.341 82.3164Z" fill="#D6AEF5"/>
<path d="M581.997 374.938C581.997 370.257 579.376 365.577 574.883 362.207C570.39 358.837 564.212 356.965 557.846 356.965C544.554 356.965 533.695 365.015 533.695 374.938C533.695 384.86 544.554 392.911 557.846 392.911C571.326 392.911 581.997 384.86 581.997 374.938Z" fill="#EBD6FA" stroke="#D6AEF5" stroke-width="4" stroke-miterlimit="10" stroke-linejoin="round"/>
<path d="M740.947 396.094H139.043C137.733 396.094 136.609 394.971 136.609 393.66V375.313C136.609 374.002 137.733 372.879 139.043 372.879H740.947C742.258 372.879 743.381 374.002 743.381 375.313V393.66C743.568 394.971 742.445 396.094 740.947 396.094Z" fill="white" stroke="#D6AEF5" stroke-width="4" stroke-miterlimit="10"/>
<path d="M730.274 350.224C730.274 351.721 729.713 353.219 728.59 354.155C727.653 355.091 726.156 355.84 724.658 355.84H668.867C670.365 355.84 671.863 355.279 672.799 354.155C673.735 353.219 674.484 351.721 674.484 350.224C674.484 347.041 671.863 344.607 668.867 344.607H724.658C727.841 344.42 730.274 347.041 730.274 350.224Z" fill="#EBD6FA" stroke="#D6AEF5" stroke-width="4" stroke-miterlimit="10" stroke-linejoin="round"/>
<path d="M682.348 350.224C682.348 351.721 681.786 353.219 680.663 354.155C679.727 355.091 678.229 355.84 676.732 355.84H643.781C645.279 355.84 646.777 355.279 647.713 354.155C648.649 353.219 649.398 351.721 649.398 350.224C649.398 347.041 646.777 344.607 643.781 344.607H676.732C679.727 344.42 682.348 347.041 682.348 350.224Z" fill="#EBD6FA" stroke="#D6AEF5" stroke-width="4" stroke-miterlimit="10" stroke-linejoin="round"/>
<path d="M682.348 350.224C682.348 351.721 681.786 353.219 680.663 354.155C679.727 355.091 678.229 355.84 676.732 355.84H643.781C645.279 355.84 646.777 355.279 647.713 354.155C648.649 353.219 649.398 351.721 649.398 350.224C649.398 347.041 646.777 344.607 643.781 344.607H676.732C679.727 344.42 682.348 347.041 682.348 350.224Z" fill="white" stroke="#D6AEF5" stroke-width="4" stroke-miterlimit="10" stroke-linejoin="round"/>
<path d="M718.294 363.702C718.294 365.2 717.732 366.698 716.609 367.634C715.673 368.57 714.175 369.319 712.678 369.319H656.887C658.384 369.319 659.882 368.757 660.818 367.634C661.754 366.698 662.503 365.2 662.503 363.702C662.503 360.52 659.882 358.086 656.887 358.086H712.678C715.673 358.086 718.294 360.52 718.294 363.702Z" fill="#EBD6FA" stroke="#D6AEF5" stroke-width="4" stroke-miterlimit="10" stroke-linejoin="round"/>
<path d="M670.18 363.702C670.18 365.2 669.618 366.698 668.495 367.634C667.559 368.57 666.061 369.319 664.564 369.319H631.613C633.111 369.319 634.609 368.757 635.545 367.634C636.481 366.698 637.23 365.2 637.23 363.702C637.23 360.52 634.609 358.086 631.613 358.086H664.564C667.746 358.086 670.18 360.52 670.18 363.702Z" fill="#EBD6FA" stroke="#D6AEF5" stroke-width="4" stroke-miterlimit="10" stroke-linejoin="round"/>
<path d="M670.18 363.702C670.18 365.2 669.618 366.698 668.495 367.634C667.559 368.57 666.061 369.319 664.564 369.319H631.613C633.111 369.319 634.609 368.757 635.545 367.634C636.481 366.698 637.23 365.2 637.23 363.702C637.23 360.52 634.609 358.086 631.613 358.086H664.564C667.746 358.086 670.18 360.52 670.18 363.702Z" fill="white" stroke="#D6AEF5" stroke-width="4" stroke-miterlimit="10" stroke-linejoin="round"/>
<path d="M646.965 333.935C646.965 336.556 648.088 338.99 649.773 340.675C651.458 342.36 653.892 343.483 656.513 343.483H706.313C703.692 343.483 708.185 342.36 706.5 340.675C704.815 338.99 703.692 336.556 703.692 333.935C703.692 328.693 701.071 324.387 706.313 324.387H656.513C651.084 324.574 646.965 328.693 646.965 333.935Z" fill="#EBD6FA" stroke="#D6AEF5" stroke-width="4" stroke-miterlimit="10" stroke-linejoin="round"/>
<path d="M690.398 333.935C690.398 336.556 691.522 338.99 693.207 340.675C694.892 342.36 697.325 343.483 699.946 343.483H728.029C725.408 343.483 722.974 342.36 721.289 340.675C719.604 338.99 718.481 336.556 718.481 333.935C718.481 328.693 722.787 324.387 728.029 324.387H699.946C694.704 324.574 690.398 328.693 690.398 333.935Z" fill="#EBD6FA" stroke="#D6AEF5" stroke-width="4" stroke-miterlimit="10" stroke-linejoin="round"/>
<path d="M690.398 333.935C690.398 336.556 691.522 338.99 693.207 340.675C694.892 342.36 697.325 343.483 699.946 343.483H728.029C725.408 343.483 722.974 342.36 721.289 340.675C719.604 338.99 718.481 336.556 718.481 333.935C718.481 328.693 722.787 324.387 728.029 324.387H699.946C694.704 324.574 690.398 328.693 690.398 333.935Z" fill="white" stroke="#D6AEF5" stroke-width="4" stroke-miterlimit="10" stroke-linejoin="round"/>
<path d="M304.168 345.355H306.04C309.036 345.355 311.282 347.977 311.282 351.159C311.282 354.529 308.848 356.963 306.04 356.963H304.168" fill="#EBD6FA"/>
<path d="M304.168 345.355H306.04C309.036 345.355 311.282 347.977 311.282 351.159C311.282 354.529 308.848 356.963 306.04 356.963H304.168" stroke="#D6AEF5" stroke-width="4" stroke-miterlimit="10" stroke-linejoin="round"/>
<path d="M292.374 371.004H274.775C268.223 371.004 263.168 365.761 263.168 359.583V341.61C263.168 338.989 265.415 337.117 267.848 337.117H299.488C302.109 337.117 304.169 339.177 304.169 341.61V359.396C303.981 365.949 298.739 371.004 292.374 371.004Z" fill="white" stroke="#D6AEF5" stroke-width="4" stroke-miterlimit="10"/>
<path d="M299.674 318.21C299.674 316.899 298.55 315.963 297.427 315.963H293.121C291.81 315.963 290.874 314.84 290.874 313.716C290.874 312.406 291.998 311.47 293.121 311.47H295.742C297.053 311.47 297.989 310.346 297.989 309.223C297.989 307.913 296.865 306.977 295.742 306.977H274.586C273.276 306.977 272.34 308.1 272.34 309.223C272.34 310.534 273.463 311.47 274.586 311.47H284.883C286.194 311.47 287.13 312.593 287.13 313.716C287.13 315.027 286.007 315.963 284.883 315.963H276.646C275.335 315.963 274.399 317.086 274.399 318.21C274.399 319.52 275.523 320.456 276.646 320.456H278.144C279.454 320.456 280.39 321.58 280.39 322.703C280.39 324.013 279.267 324.949 278.144 324.949H276.646C275.335 324.949 274.399 326.073 274.399 327.196C274.399 328.507 275.523 329.443 276.646 329.443H290.125C291.436 329.443 292.372 328.319 292.372 327.196C292.372 325.886 291.249 324.949 290.125 324.949H287.879C286.568 324.949 285.632 323.826 285.632 322.703C285.632 321.392 286.756 320.456 287.879 320.456H297.614C298.737 320.456 299.674 319.333 299.674 318.21Z" fill="#D6AEF5"/>
<path d="M291.249 358.085H284.135C283.386 358.085 282.824 357.524 282.824 356.775V350.971C282.824 350.597 283.011 350.222 283.199 350.035L285.445 347.788C285.632 347.601 286.007 347.414 286.381 347.414H289.002C289.377 347.414 289.751 347.601 289.938 347.788L292.185 350.035C292.372 350.222 292.56 350.597 292.56 350.971V356.775C292.747 357.524 291.998 358.085 291.249 358.085Z" fill="#D6AEF5"/>
<path d="M287.879 349.661V337.117" stroke="#D6AEF5" stroke-width="4" stroke-miterlimit="10" stroke-linejoin="round"/>
<path d="M751.994 106.09C750.683 106.839 749.186 107.4 747.875 108.149" stroke="#D6AEF5" stroke-width="4" stroke-linecap="round" stroke-linejoin="round"/>
<path d="M732.335 114.703C684.782 132.676 626.37 134.923 583.123 107.589C566.835 97.2922 545.68 77.4471 549.986 55.9171C551.67 47.1179 558.036 39.442 565.712 34.7616C591.361 19.2225 631.425 28.7706 646.028 55.1683C658.572 77.8216 650.334 108.712 638.352 130.055C607.648 184.348 549.237 207.75 491.199 220.481" stroke="#D6AEF5" stroke-width="4" stroke-linecap="round" stroke-linejoin="round" stroke-dasharray="10 10"/>
<path d="M483.149 222.168C481.651 222.542 480.154 222.73 478.469 223.104" stroke="#D6AEF5" stroke-width="4" stroke-linecap="round" stroke-linejoin="round"/>
<g opacity="0.6">
<path d="M30.0826 256.055H2V269.16H30.0826V256.055Z" fill="white" stroke="#D6AEF5" stroke-width="4" stroke-miterlimit="10" stroke-linecap="round" stroke-linejoin="round"/>
<path d="M47.8678 269.535H19.7852V282.64H47.8678V269.535Z" fill="white" stroke="#D6AEF5" stroke-width="4" stroke-miterlimit="10" stroke-linecap="round" stroke-linejoin="round"/>
<path d="M51.8014 242.949H23.7188V256.054H51.8014V242.949Z" fill="white" stroke="#D6AEF5" stroke-width="4" stroke-miterlimit="10" stroke-linecap="round" stroke-linejoin="round"/>
</g>
<g opacity="0.6">
<path d="M106.653 318.023H78.5703V331.129H106.653V318.023Z" fill="white" stroke="#D6AEF5" stroke-width="4" stroke-miterlimit="10" stroke-linecap="round" stroke-linejoin="round"/>
<path d="M128.372 304.918H100.289V318.023H128.372V304.918Z" fill="white" stroke="#D6AEF5" stroke-width="4" stroke-miterlimit="10" stroke-linecap="round" stroke-linejoin="round"/>
</g>
<g opacity="0.6">
<path d="M731.212 37.0078H703.129V50.113H731.212V37.0078Z" fill="white" stroke="#D6AEF5" stroke-width="4" stroke-miterlimit="10" stroke-linecap="round" stroke-linejoin="round"/>
<path d="M753.118 23.9023H725.035V37.0076H753.118V23.9023Z" fill="white" stroke="#D6AEF5" stroke-width="4" stroke-miterlimit="10" stroke-linecap="round" stroke-linejoin="round"/>
</g>
</svg>
